<?xml version="1.0" standalone="no"?>
<!DOCTYPE svg PUBLIC "-//W3C//DTD SVG 20010904//EN"
 "http://www.w3.org/TR/2001/REC-SVG-20010904/DTD/svg10.dtd">
<svg version="1.0" xmlns="http://www.w3.org/2000/svg"
 width="117.000000pt" height="110.000000pt" viewBox="0 0 117.000000 110.000000"
 preserveAspectRatio="xMidYMid meet">
<metadata>
Created by potrace 1.16, written by Peter Selinger 2001-2019
</metadata>
<g transform="translate(0.000000,110.000000) scale(0.022852,-0.021484)"
fill="#000000" stroke="none">
<path d="M2250 5104 c-1147 -156 -2035 -1049 -2185 -2197 -20 -156 -20 -488 0
-644 151 -1154 1044 -2047 2198 -2198 156 -20 488 -20 644 0 1154 151 2047
1044 2198 2198 20 156 20 488 0 644 -151 1154 -1044 2047 -2198 2198 -150 19
-510 19 -657 -1z m-278 -1676 c153 -81 242 -252 270 -515 l12 -111 50 -39 c28
-21 58 -43 67 -50 14 -11 19 -2 38 72 39 146 114 279 199 350 63 53 117 68
255 73 l127 4 0 -211 0 -211 -42 0 c-133 0 -208 -74 -262 -257 l-15 -53 129
-100 c136 -106 156 -132 181 -233 15 -62 6 -233 -16 -306 -20 -66 -70 -121
-110 -121 -23 0 -56 29 -174 151 l-146 152 -35 -45 c-18 -24 -54 -60 -79 -79
l-44 -34 -149 -3 -148 -3 0 190 0 191 48 0 c92 0 150 64 201 225 52 161 54
150 -43 223 l-84 63 -7 92 c-16 226 -58 352 -146 438 -55 53 -106 80 -166 87
-46 5 -106 -14 -101 -32 2 -7 53 -58 115 -114 114 -105 133 -133 133 -201 0
-34 -63 -403 -75 -442 -4 -11 -15 -24 -25 -29 -21 -11 -31 -4 -174 127 -44 40
-81 71 -83 69 -8 -7 40 -133 80 -211 27 -53 63 -102 107 -146 68 -69 108 -87
154 -69 26 10 101 97 111 130 9 28 20 25 43 -12 l21 -32 -24 -41 c-56 -93
-114 -145 -164 -145 -71 0 -179 91 -256 214 -73 118 -136 298 -152 436 l-6 55
103 -95 c158 -147 211 -193 214 -189 9 10 73 405 68 415 -4 6 -74 73 -157 149
-82 76 -151 141 -153 144 -4 10 70 78 103 95 17 9 55 16 89 16 46 0 70 -6 118
-32z m-1332 -209 c31 -9 63 -32 106 -74 34 -33 67 -69 73 -80 9 -14 14 -16 18
-7 11 26 69 96 103 123 46 37 148 63 221 56 146 -13 256 -114 307 -282 13 -41
16 -139 19 -572 l4 -523 -175 0 -175 0 -3 469 c-3 445 -4 470 -22 490 -30 33
-72 28 -96 -11 -19 -32 -20 -52 -20 -490 l0 -458 -175 0 -175 0 0 458 c0 438
-1 458 -20 490 -24 39 -66 44 -96 11 -18 -20 -19 -45 -22 -490 l-3 -469 -172
2 -172 3 0 510 c0 402 3 522 14 565 38 150 134 259 258 290 48 12 144 7 203
-11z m4006 10 c176 -32 286 -154 314 -347 5 -37 10 -282 10 -544 l0 -478 -175
0 -175 0 0 453 c0 343 -3 458 -13 477 -26 52 -105 52 -132 0 -13 -25 -15 -96
-15 -480 l0 -450 -172 2 -173 3 -3 460 c-2 292 1 491 8 545 13 98 50 188 103
247 88 97 258 142 423 112z m-1176 -468 c0 -262 4 -460 10 -475 21 -57 105
-72 133 -23 9 16 13 142 17 482 l5 460 170 0 170 0 3 -480 c3 -499 -2 -570
-39 -671 -46 -123 -180 -214 -335 -229 -200 -19 -379 78 -446 242 -23 58 -23
58 -26 601 l-3 542 171 0 170 0 0 -449z m-1600 -503 c31 -16 54 -38 74 -72 60
-98 33 -255 -54 -312 -52 -34 -100 -40 -156 -19 -153 58 -161 338 -11 406 55
25 93 24 147 -3z"/>
<path d="M2642 2323 c-7 -37 -24 -99 -38 -138 -14 -38 -28 -79 -30 -90 -4 -15
27 -52 130 -154 l135 -134 26 17 c33 22 49 60 65 155 27 160 5 208 -143 321
-61 47 -116 86 -122 88 -6 1 -16 -28 -23 -65z m140 -78 c23 -15 47 -45 64 -80
23 -48 26 -64 21 -120 -2 -36 -12 -76 -21 -90 -36 -55 -105 -15 -157 90 -27
56 -31 72 -27 124 7 98 48 125 120 76z"/>
</g>
</svg>
